<?xml version="1.0" encoding="UTF-8" standalone="no"?>
<!DOCTYPE svg PUBLIC "-//W3C//DTD SVG 1.1//EN" "http://www.w3.org/Graphics/SVG/1.1/DTD/svg11.dtd">
<svg width="100%" height="100%" viewBox="0 0 100 100" version="1.1" xmlns="http://www.w3.org/2000/svg" xmlns:xlink="http://www.w3.org/1999/xlink" xml:space="preserve" xmlns:serif="http://www.serif.com/" style="fill-rule:evenodd;clip-rule:evenodd;stroke-linejoin:round;stroke-miterlimit:1.41421;">
    <g id="Design-Automation" serif:id="Design Automation" transform="matrix(1,0,0,1,3.84551,10.7305)">
        <g id="Fill-1" transform="matrix(1,0,0,1,0,-0.460588)">
            <path d="M77.549,58.277L75.182,58.277L75.182,54.748L77.549,54.748C83.741,54.748 88.777,49.714 88.777,43.525C88.777,37.338 83.741,32.304 77.549,32.304C76.763,32.304 75.941,32.405 75.035,32.614C74.405,32.76 73.748,32.548 73.318,32.064C72.89,31.581 72.759,30.902 72.978,30.295C73.758,28.134 74.154,25.909 74.154,23.682C74.154,12.921 65.394,4.167 54.626,4.167C46.528,4.167 39.392,9.049 36.444,16.605C36.182,17.276 35.539,17.721 34.818,17.729C27.038,17.816 20.572,23.464 19.445,31.158C19.373,31.647 19.1,32.082 18.693,32.361C18.283,32.638 17.779,32.731 17.298,32.622C16.377,32.408 15.547,32.304 14.761,32.304C8.569,32.304 3.532,37.338 3.532,43.525C3.532,49.714 8.569,54.748 14.761,54.748L24.592,54.748L24.592,58.277L14.761,58.277C6.622,58.277 0,51.66 0,43.525C0,35.392 6.622,28.775 14.761,28.775C15.264,28.775 15.771,28.805 16.295,28.865C18.262,20.742 25.207,14.842 33.605,14.248C37.324,5.941 45.452,0.637 54.626,0.637C67.341,0.637 77.686,10.975 77.686,23.682C77.686,25.392 77.489,27.1 77.101,28.783C85.473,28.489 92.309,35.243 92.309,43.525C92.309,51.66 85.687,58.277 77.549,58.277" style="fill:rgb(6,150,215);"/>
        </g>
        <g id="Fill-4" transform="matrix(1,0,0,1,0,-1)">
            <path d="M49.852,53.306C48.761,53.306 47.671,53.728 46.853,54.572C45.251,56.222 45.292,58.871 46.943,60.473C47.745,61.25 48.82,61.675 49.916,61.651C51.031,61.634 52.073,61.184 52.848,60.384C53.625,59.582 54.044,58.528 54.028,57.413C54.01,56.299 53.559,55.258 52.76,54.481C51.949,53.697 50.901,53.306 49.852,53.306M49.849,65.18C47.835,65.18 45.935,64.411 44.485,63.007C41.435,60.05 41.36,55.164 44.318,52.114C47.277,49.067 52.166,48.99 55.218,51.948C56.696,53.38 57.528,55.302 57.558,57.36C57.589,59.417 56.818,61.364 55.384,62.84C53.95,64.318 52.028,65.148 49.97,65.18C49.929,65.18 49.889,65.18 49.849,65.18M48.889,71.574L49.327,75.799L51.299,75.757L51.531,71.902C51.475,71.764 51.435,71.615 51.415,71.461C51.299,70.566 51.876,69.728 52.754,69.518C54.121,69.191 55.412,68.637 56.592,67.872C57.343,67.384 58.345,67.538 58.916,68.231C58.972,68.299 59.023,68.371 59.066,68.445L62.188,71.012L63.562,69.595L60.532,66.139C60.02,65.553 59.951,64.7 60.365,64.04C61.098,62.868 61.626,61.594 61.934,60.252C62.104,59.508 62.733,58.958 63.495,58.89L68.072,58.474L68.054,56.501L63.548,56.174C62.769,56.118 62.12,55.557 61.951,54.795C61.628,53.331 61.046,51.953 60.226,50.7C59.802,50.053 59.848,49.208 60.339,48.612L63.188,45.152L61.772,43.779L58.399,46.731C57.816,47.239 56.972,47.31 56.313,46.908C55.06,46.141 53.691,45.608 52.246,45.326C51.484,45.177 50.908,44.547 50.828,43.775L50.37,39.361L48.398,39.405L48.13,43.866C48.084,44.633 47.546,45.282 46.8,45.471C45.426,45.819 44.133,46.394 42.959,47.181C42.311,47.615 41.454,47.575 40.851,47.079L37.413,44.25L36.039,45.665L39.02,49.067C39.523,49.644 39.599,50.479 39.206,51.135C38.511,52.297 38.015,53.558 37.732,54.886C37.57,55.642 36.935,56.206 36.165,56.275L31.627,56.687L31.643,58.659L36.205,58.991C36.975,59.046 37.618,59.594 37.796,60.344C38.126,61.738 38.69,63.05 39.473,64.245C39.894,64.891 39.848,65.737 39.357,66.332L36.41,69.912L37.825,71.285L41.316,68.231C41.899,67.724 42.743,67.651 43.401,68.053C44.656,68.82 46.026,69.351 47.473,69.632C48.361,69.805 48.975,70.621 48.895,71.521C48.893,71.54 48.892,71.557 48.889,71.574M47.737,79.362C46.835,79.362 46.075,78.681 45.982,77.78L45.463,72.777C44.513,72.506 43.593,72.147 42.71,71.704L38.928,75.012C38.236,75.618 37.195,75.592 36.535,74.951L32.783,71.313C32.121,70.673 32.065,69.634 32.649,68.925L35.842,65.047C35.387,64.207 35.01,63.331 34.715,62.421L29.766,62.061C28.847,61.994 28.135,61.235 28.127,60.317L28.08,55.093C28.072,54.174 28.771,53.402 29.685,53.32L34.606,52.873C34.856,52.046 35.171,51.242 35.553,50.468L32.309,46.767C31.704,46.075 31.73,45.035 32.37,44.375L36.009,40.625C36.65,39.965 37.689,39.907 38.399,40.491L42.127,43.557C42.942,43.104 43.794,42.725 44.678,42.422L44.972,37.57C45.026,36.652 45.776,35.931 46.695,35.911L51.922,35.799C52.797,35.765 53.622,36.467 53.716,37.38L54.213,42.17C55.177,42.444 56.112,42.807 57.006,43.257L60.669,40.052C61.36,39.448 62.401,39.473 63.062,40.113L66.815,43.751C67.476,44.39 67.534,45.43 66.949,46.139L63.857,49.897C64.349,50.805 64.751,51.758 65.058,52.745L69.933,53.1C70.85,53.166 71.563,53.925 71.571,54.844L71.618,60.068C71.626,60.987 70.927,61.759 70.012,61.841L65.034,62.293C64.765,63.141 64.425,63.965 64.017,64.757L67.29,68.495C67.896,69.186 67.87,70.226 67.23,70.886L63.59,74.637C62.949,75.295 61.908,75.353 61.201,74.771L57.288,71.552C56.561,71.935 55.809,72.261 55.031,72.527L54.727,77.592C54.672,78.508 53.922,79.231 53.003,79.25L47.776,79.362C47.764,79.362 47.751,79.362 47.737,79.362" style="fill:rgb(6,150,215);"/>
        </g>
    </g>
</svg>
